#define minimize_width 9
#define minimize_height 9
static unsigned char minimize_bits[] = {
   0x00, 0x00, 0x00, 0x00, 0x00, 0x00, 0x00, 0x00, 0x00, 0x00, 0x00, 0x00,
   0xfe, 0x00, 0x00, 0x00, 0x00, 0x00 };
