#define expand_width 9
#define expand_height 9
static unsigned char expand_bits[] = {
   0x00, 0x00, 0x1e, 0x00, 0x06, 0x00, 0x0a, 0x00, 0x92, 0x00, 0xa0, 0x00,
   0xc0, 0x00, 0xf0, 0x00, 0x00, 0x00 };
